normalP042_grf.mot
version=1
nRows=22
nColumns=19
inDegrees=yes
endheader
time	1_ground_force_vx	1_ground_force_vy	1_ground_force_vz	1_ground_force_px	1_ground_force_py	1_ground_force_pz	1_ground_torque_x	1_ground_torque_y	1_ground_torque_z	2_ground_force_vx	2_ground_force_vy	2_ground_force_vz	2_ground_force_px	2_ground_force_py	2_ground_force_pz	2_ground_torque_x	2_ground_torque_y	2_ground_torque_z
            1.950000	          156.849438	          582.086179	           31.239001	            0.413587	            0.002690	           -0.375695	           -0.424407	           -1.575022	           -0.084527	          -39.451453	          350.045785	           28.701898	            0.936474	            0.001091	           -0.272658	            0.003294	           -0.029231	           -0.002397
            1.951000	          156.473473	          573.962243	           30.716775	            0.413605	            0.002691	           -0.375875	           -0.409516	           -1.502149	           -0.080391	          -41.753062	          363.478779	           29.017345	            0.936355	            0.001088	           -0.271795	            0.004116	           -0.035830	           -0.002860
            1.952000	          156.009060	          568.787734	           30.134941	            0.413661	            0.002689	           -0.375371	           -0.424891	           -1.549095	           -0.082073	          -44.499298	          370.041282	           29.106515	            0.936821	            0.001086	           -0.271797	            0.006716	           -0.055844	           -0.004393
            1.953000	          155.433064	          562.580610	           29.473276	            0.413078	            0.002691	           -0.375277	           -0.430282	           -1.557381	           -0.081590	          -47.247123	          366.932634	           28.988581	            0.938279	            0.001084	           -0.272376	            0.007777	           -0.060395	           -0.004771
            1.954000	          154.837516	          555.255485	           28.854082	            0.413004	            0.002691	           -0.375292	           -0.424477	           -1.522197	           -0.079102	          -49.809786	          366.541197	           28.504873	            0.939272	            0.001080	           -0.272273	            0.003841	           -0.028266	           -0.002198
            1.955000	          154.158984	          546.176823	           28.329069	            0.413135	            0.002692	           -0.375563	           -0.404853	           -1.434371	           -0.074398	          -52.447369	          375.985290	           27.675284	            0.939199	            0.001080	           -0.272285	            0.008272	           -0.059298	           -0.004365
            1.956000	          153.452138	          537.656193	           27.782972	            0.413195	            0.002692	           -0.375635	           -0.393938	           -1.380254	           -0.071324	          -55.058255	          386.545906	           26.857717	            0.939457	            0.001077	           -0.271731	            0.006736	           -0.047294	           -0.003286
            1.957000	          152.744895	          531.127845	           27.082278	            0.413263	            0.002691	           -0.375542	           -0.393657	           -1.368834	           -0.069797	          -57.701669	          387.274698	           26.209199	            0.939980	            0.001075	           -0.271484	            0.004052	           -0.027197	           -0.001841
            1.958000	          152.080232	          523.805900	           26.348324	            0.412716	            0.002693	           -0.375273	           -0.404527	           -1.393303	           -0.070085	          -59.989696	          381.848706	           25.621144	            0.941452	            0.001073	           -0.272205	            0.004090	           -0.026032	           -0.001747
            1.959000	          151.303401	          515.207484	           25.526360	            0.412587	            0.002693	           -0.375334	           -0.395643	           -1.347214	           -0.066749	          -62.280442	          382.495821	           25.333268	            0.941934	            0.001071	           -0.272174	            0.003118	           -0.019152	           -0.001268
            1.960000	          150.361670	          505.411937	           24.869252	            0.413088	            0.002692	           -0.375577	           -0.377615	           -1.269279	           -0.062456	          -64.400088	          388.497533	           25.035130	            0.942174	            0.001069	           -0.271899	            0.004984	           -0.030069	           -0.001938
            1.961000	          149.403254	          497.371551	           24.102787	            0.413047	            0.002692	           -0.375362	           -0.381234	           -1.269150	           -0.061503	          -66.188629	          392.577888	           24.852458	            0.942793	            0.001065	           -0.271405	            0.000010	           -0.000058	           -0.000004
            1.962000	          148.255326	          489.892142	           23.261693	            0.412665	            0.002692	           -0.375045	           -0.392457	           -1.296828	           -0.061578	          -67.959179	          390.505166	           24.753316	            0.943525	            0.001063	           -0.271592	            0.001079	           -0.006198	           -0.000393
            1.963000	          146.982701	          481.853461	           22.327146	            0.412443	            0.002692	           -0.374886	           -0.397542	           -1.303263	           -0.060388	          -69.443002	          386.991989	           24.633422	            0.944408	            0.001061	           -0.271602	            0.000271	           -0.001510	           -0.000096
            1.964000	          145.693601	          471.505023	           21.377728	            0.412452	            0.002693	           -0.375051	           -0.387162	           -1.252965	           -0.056809	          -70.597524	          390.352381	           24.378404	            0.944923	            0.001058	           -0.271438	           -0.001795	            0.009925	            0.000620
            1.965000	          144.330217	          461.633536	           20.475867	            0.412436	            0.002694	           -0.375318	           -0.379624	           -1.214210	           -0.053857	          -71.072224	          395.231026	           24.036696	            0.944700	            0.001058	           -0.271313	            0.002012	           -0.011189	           -0.000680
            1.966000	          142.976382	          452.401057	           19.530045	            0.412537	            0.002693	           -0.375073	           -0.383026	           -1.211957	           -0.052320	          -71.436933	          396.270667	           23.810400	            0.945068	            0.001056	           -0.271054	            0.000707	           -0.003919	           -0.000235
            1.967000	          141.419701	          444.204137	           18.648862	            0.412433	            0.002691	           -0.374387	           -0.407066	           -1.278608	           -0.053679	          -71.400256	          393.472860	           23.538374	            0.946038	            0.001054	           -0.271232	            0.001650	           -0.009093	           -0.000544
            1.968000	          139.643244	          434.574731	           17.709818	            0.412309	            0.002691	           -0.374272	           -0.413321	           -1.286270	           -0.052418	          -70.882155	          392.511742	           23.188741	            0.946240	            0.001052	           -0.270866	           -0.004103	            0.022721	            0.001342
            1.969000	          137.914726	          425.422120	           16.856510	            0.412244	            0.002692	           -0.374441	           -0.401377	           -1.238118	           -0.049058	          -70.022678	          395.067648	           22.828986	            0.946084	            0.001051	           -0.270644	            0.001561	           -0.008807	           -0.000509
            1.970000	          136.109715	          414.276230	           16.065871	            0.412269	            0.002692	           -0.374543	           -0.393794	           -1.198587	           -0.046482	          -68.562856	          395.941740	           22.739320	            0.946466	            0.001050	           -0.270645	            0.001314	           -0.007588	           -0.000436
            1.971000	          134.302264	          404.567657	           15.233812	            0.412103	            0.002692	           -0.374239	           -0.399320	           -1.202899	           -0.045295	          -67.173549	          396.330842	           22.770599	            0.948252	            0.001041	           -0.269851	           -0.009667	            0.057035	            0.003277
